<svg width="32" height="32" viewBox="0 0 32 32" fill="none" xmlns="http://www.w3.org/2000/svg">
<g clip-path="url(#clip0_253_60)">
<path d="M21.756 0.563991L22.452 2.70599C22.6678 3.35751 23.0331 3.94949 23.5186 4.43463C24.0041 4.91977 24.5963 5.28461 25.248 5.49999L27.392 6.19599L27.434 6.20799C27.5992 6.26615 27.7423 6.37415 27.8435 6.51708C27.9447 6.66002 27.9991 6.83085 27.9991 7.00599C27.9991 7.18114 27.9447 7.35196 27.8435 7.4949C27.7423 7.63784 27.5992 7.74583 27.434 7.80399L25.292 8.49999C24.64 8.7151 24.0473 9.07982 23.5615 9.56498C23.0756 10.0501 22.71 10.6423 22.494 11.294L21.798 13.434C21.7398 13.5992 21.6318 13.7423 21.4889 13.8435C21.346 13.9447 21.1751 13.9991 21 13.9991C20.8249 13.9991 20.654 13.9447 20.5111 13.8435C20.3682 13.7423 20.2602 13.5992 20.202 13.434L19.506 11.294C19.2916 10.64 18.9267 10.0455 18.4408 9.55818C17.9548 9.07085 17.3613 8.7043 16.708 8.48799L14.564 7.79199C14.3988 7.73383 14.2557 7.62584 14.1545 7.4829C14.0533 7.33996 13.9989 7.16914 13.9989 6.99399C13.9989 6.81885 14.0533 6.64802 14.1545 6.50508C14.2557 6.36215 14.3988 6.25415 14.564 6.19599L16.708 5.49999C17.3519 5.27906 17.9358 4.91174 18.4136 4.42692C18.8915 3.9421 19.2504 3.35301 19.462 2.70599L20.158 0.565991C20.2157 0.400088 20.3237 0.256272 20.4669 0.1545C20.61 0.0527272 20.7813 -0.00195313 20.957 -0.00195312C21.1327 -0.00195312 21.304 0.0527272 21.4471 0.1545C21.5903 0.256272 21.6983 0.398088 21.756 0.563991ZM31.566 16.428L30.036 15.932C29.5704 15.7771 29.1473 15.5159 28.8001 15.1691C28.453 14.8223 28.1914 14.3994 28.036 13.934L27.54 12.406C27.4986 12.2879 27.4215 12.1855 27.3194 12.1131C27.2173 12.0407 27.0952 12.0018 26.97 12.0018C26.8448 12.0018 26.7227 12.0407 26.6206 12.1131C26.5185 12.1855 26.4414 12.2879 26.4 12.406L25.9 13.934C25.7481 14.3958 25.4916 14.8164 25.1507 15.1629C24.8097 15.5094 24.3933 15.7726 23.934 15.932L22.404 16.428C22.2868 16.4703 22.1854 16.5477 22.1138 16.6497C22.0422 16.7517 22.0038 16.8734 22.0038 16.998C22.0038 17.1226 22.0422 17.2442 22.1138 17.3462C22.1854 17.4482 22.2868 17.5257 22.404 17.568L23.934 18.066C24.4003 18.2215 24.8238 18.4836 25.171 18.8315C25.5182 19.1794 25.7794 19.6034 25.934 20.07L26.43 21.598C26.4714 21.7161 26.5485 21.8185 26.6506 21.8909C26.7527 21.9633 26.8748 22.0022 27 22.0022C27.1252 22.0022 27.2473 21.9633 27.3494 21.8909C27.4515 21.8185 27.5286 21.7161 27.57 21.598L28.068 20.07C28.2232 19.6048 28.4845 19.182 28.8312 18.8352C29.178 18.4884 29.6008 18.2271 30.066 18.072L31.596 17.576C31.7132 17.5337 31.8146 17.4562 31.8862 17.3542C31.9578 17.2522 31.9962 17.1306 31.9962 17.006C31.9962 16.8814 31.9578 16.7597 31.8862 16.6577C31.8146 16.5557 31.7132 16.4783 31.596 16.436L31.566 16.428ZM27.004 24C26.6242 24.0013 26.2487 23.9194 25.904 23.76C25.7359 24.402 25.3596 24.9701 24.8342 25.3754C24.3087 25.7808 23.6636 26.0004 23 26H22V22H24.454L24.03 20.694C23.9772 20.5251 23.8806 20.3733 23.75 20.254C23.6426 20.1464 23.5156 20.0602 23.376 20H22V19.542L21.788 19.472C21.248 19.272 20.808 18.952 20.488 18.512C20.168 18.072 20.008 17.55 20.008 17.008C20.008 14.112 20 24.504 20 26H9C8.20435 26 7.44129 25.6839 6.87868 25.1213C6.31607 24.5587 6 23.7956 6 23V7.49999C6 7.10217 6.15804 6.72063 6.43934 6.43933C6.72064 6.15803 7.10218 5.99999 7.5 5.99999H12.176C12.2613 5.77066 12.376 5.55399 12.52 5.34999C12.86 4.86999 13.34 4.50999 13.9 4.30799L14.86 3.99999H7.5C6.57174 3.99999 5.6815 4.36874 5.02513 5.02512C4.36875 5.68149 4 6.57173 4 7.49999V23C4 24.3261 4.52678 25.5978 5.46447 26.5355C6.40215 27.4732 7.67392 28 9 28H23C24.1755 28 25.3135 27.5858 26.214 26.8301C27.1145 26.0745 27.7199 25.0257 27.924 23.868C27.6261 23.9595 27.3157 24.004 27.004 24ZM16.064 10.398L14.86 9.99999H10C9.73478 9.99999 9.48043 10.1053 9.29289 10.2929C9.10536 10.4804 9 10.7348 9 11C9 11.2652 9.10536 11.5196 9.29289 11.7071C9.48043 11.8946 9.73478 12 10 12H16C16.2652 12 16.5196 11.8946 16.7071 11.7071C16.8946 11.5196 17 11.2652 17 11V10.974C16.7326 10.7175 16.4135 10.5211 16.064 10.398ZM9 16C9 15.7348 9.10536 15.4804 9.29289 15.2929C9.48043 15.1053 9.73478 15 10 15H16C16.2652 15 16.5196 15.1053 16.7071 15.2929C16.8946 15.4804 17 15.7348 17 16C17 16.2652 16.8946 16.5196 16.7071 16.7071C16.5196 16.8946 16.2652 17 16 17H10C9.73478 17 9.48043 16.8946 9.29289 16.7071C9.10536 16.5196 9 16.2652 9 16ZM10 20C9.73478 20 9.48043 20.1053 9.29289 20.2929C9.10536 20.4804 9 20.7348 9 21C9 21.2652 9.10536 21.5196 9.29289 21.7071C9.48043 21.8946 9.73478 22 10 22H13C13.2652 22 13.5196 21.8946 13.7071 21.7071C13.8946 21.5196 14 21.2652 14 21C14 20.7348 13.8946 20.4804 13.7071 20.2929C13.5196 20.1053 13.2652 20 13 20H10Z" fill="white"/>
</g>
<defs>
<clipPath id="clip0_253_60">
<rect width="32" height="32" fill="white"/>
</clipPath>
</defs>
</svg>
